HIERARCHY
ROOT Hips
{
  OFFSET 3.92544 6.39728 0
  CHANNELS 6 Xposition Yposition Zposition Zrotation Xrotation Yrotation
  JOINT BN_Spine_01
  {
    OFFSET 5.06197 -0.168311 0
    CHANNELS 6 Xposition Yposition Zposition Zrotation Xrotation Yrotation
    JOINT BN_Spine_02
    {
      OFFSET 14.8952 0 0
      CHANNELS 6 Xposition Yposition Zposition Zrotation Xrotation Yrotation
      JOINT BN_Spine_03
      {
        OFFSET 14.3786 0 0
        CHANNELS 6 Xposition Yposition Zposition Zrotation Xrotation Yrotation
        JOINT BN__Neck_01
        {
          OFFSET 15.3325 0 0
          CHANNELS 6 Xposition Yposition Zposition Zrotation Xrotation Yrotation
          JOINT BN__Neck_02
          {
            OFFSET 11.0839 0 0
            CHANNELS 6 Xposition Yposition Zposition Zrotation Xrotation Yrotation
            JOINT BN__Neck_R_01
            {
              OFFSET 3.85383 1.1973 3.491
              CHANNELS 6 Xposition Yposition Zposition Zrotation Xrotation Yrotation
              End Site
              {
                OFFSET 0 0 0
              }
            }
            JOINT BN__Neck_L_01
            {
              OFFSET 3.85383 1.1973 -3.49098
              CHANNELS 6 Xposition Yposition Zposition Zrotation Xrotation Yrotation
              End Site
              {
                OFFSET 0 0 0
              }
            }
            JOINT BN_Head_01
            {
              OFFSET 9.67523 0 0
              CHANNELS 6 Xposition Yposition Zposition Zrotation Xrotation Yrotation
              JOINT BN_Mouth_01
              {
                OFFSET 1.08197 -0.588672 0
                CHANNELS 6 Xposition Yposition Zposition Zrotation Xrotation Yrotation
                JOINT BN_Tongue_01
                {
                  OFFSET 2.17792 0.065941 0
                  CHANNELS 6 Xposition Yposition Zposition Zrotation Xrotation Yrotation
                  JOINT BN_Tongue_02
                  {
                    OFFSET 3.80658 -0.000201226 0
                    CHANNELS 6 Xposition Yposition Zposition Zrotation Xrotation Yrotation
                    End Site
                    {
                      OFFSET 0 0 0
                    }
                  }
                }
              }
            }
          }
        }
      }
    }
  }
  JOINT BN_Tail_01
  {
    OFFSET 4.67587 -0.164094 0
    CHANNELS 6 Xposition Yposition Zposition Zrotation Xrotation Yrotation
    JOINT BN_Tail_02
    {
      OFFSET 13.1147 2.52724e-005 0
      CHANNELS 6 Xposition Yposition Zposition Zrotation Xrotation Yrotation
      JOINT BN_Tail_03
      {
        OFFSET 13.4995 9.10759e-005 0
        CHANNELS 6 Xposition Yposition Zposition Zrotation Xrotation Yrotation
        JOINT BN_Tail_04
        {
          OFFSET 13.2851 0 0
          CHANNELS 6 Xposition Yposition Zposition Zrotation Xrotation Yrotation
          JOINT BN_Tail_05
          {
            OFFSET 14.6528 0.000106812 0
            CHANNELS 6 Xposition Yposition Zposition Zrotation Xrotation Yrotation
            JOINT BN_Tail_06
            {
              OFFSET 13.1048 0 0
              CHANNELS 6 Xposition Yposition Zposition Zrotation Xrotation Yrotation
              JOINT BN_Tail_07
              {
                OFFSET 11.869 0.000113964 0
                CHANNELS 6 Xposition Yposition Zposition Zrotation Xrotation Yrotation
                End Site
                {
                  OFFSET 0 0 0
                }
              }
            }
          }
        }
      }
    }
  }
}
MOTION
Frames:	9
Frame Time:	0.0333333
3.92544 3.97237 0 5.37303 -0.0014928 6.81405e-005 5.06197 -0.168311 7.27596e-012 8.05712 -2.57312 38.1669 14.8952 -2.38419e-007 -1.90735e-006 60.4342 -31.2512 -29.9225 14.3786 0 9.53674e-007 39.7966 1.73661 -19.1999 15.3325 3.55272e-015 -3.55271e-015 -23.5911 -12.3223 27.3102 11.0839 -1.90735e-006 -5.96047e-008 -67.743 0.0838766 2.30986 4.53921 1.45961 3.83302 -87.314 -13.605 -72.5979 4.48717 1.45926 -3.07319 93.2246 -18.421 99.6847 9.67523 -3.81471e-006 0 -40.1931 0.767002 0.753579 1.08197 -0.588671 2.98023e-008 -0.867302 -1.10701e-008 1.29804e-008 3.18259 0.278405 2.5332e-006 2.34676 -1.73613e-008 -3.69392e-008 5.10923 0.673201 0 19.773 2.24684e-008 1.55402e-008 4.67587 -0.164094 7.27596e-012 179.125 0.690858 -11.246 13.1147 -4.44089e-016 1.19209e-007 -5.53061 -0.888465 18.9548 13.4995 -2.38419e-007 0 -2.80222 5.77867 29.3357 13.2851 -2.38419e-007 -9.53674e-007 -1.61902 -1.74751 48.3943 14.6528 0 3.8147e-006 -1.68247 -1.96962 45.7249 13.1048 -1.19209e-007 -7.62939e-006 1.12464 0.863626 26.0834 11.869 0 0 -1.34861 5.924 -23.3681 
3.91885 3.97188 0.00511404 5.37302 -0.00484418 -0.0355648 5.06197 -0.168311 7.27595e-012 7.89076 -2.57497 38.2623 14.8952 -2.38419e-007 -1.90735e-006 60.1958 -31.2625 -30.2744 14.3786 -3.55272e-015 9.53674e-007 39.9959 1.859 -18.9965 15.3325 3.55272e-015 -3.55271e-015 -23.0698 -12.1362 27.0645 11.0839 -1.90735e-006 -5.96047e-008 -67.8695 0.0608876 2.4176 4.51613 1.48753 3.74316 -87.314 -13.605 -72.5979 4.45613 1.47383 -2.9826 93.2246 -18.421 99.6847 9.67523 -3.81471e-006 1.22125e-015 -40.2275 0.748043 0.77375 1.08197 -0.588671 2.98452e-008 -0.867302 -1.0641e-008 1.29172e-008 3.16949 0.277878 2.53317e-006 2.27258 -1.84824e-008 -3.66789e-008 5.07142 0.664176 -2.39538e-011 12.312 -0.00103625 -1.42563 4.67587 -0.164094 7.27595e-012 179.116 0.692511 -11.2242 13.1147 4.44089e-016 1.19209e-007 -5.69511 -0.945125 21.9762 13.4995 -2.38419e-007 0 -2.90828 5.72004 29.4746 13.2851 -2.38419e-007 -9.53674e-007 -1.71476 -1.94502 50.0941 14.6528 7.58948e-013 3.8147e-006 -1.63017 -2.00857 45.1212 13.1048 -1.19209e-007 -7.62939e-006 1.4003 0.660255 24.8682 11.869 4.44089e-016 1.42109e-014 -1.28773 5.86066 -23.9043 
3.90014 3.97047 0.0195834 5.37304 -0.0140055 -0.132971 5.06197 -0.168311 7.27595e-012 7.44362 -2.57434 38.5321 14.8952 -2.38419e-007 -1.90735e-006 59.5367 -31.2784 -31.228 14.3786 1.06581e-014 9.53674e-007 40.5254 2.18957 -18.454 15.3325 -2.13163e-014 -3.55271e-015 -21.6444 -11.6233 26.3851 11.0839 -1.90735e-006 -5.96047e-008 -68.1901 -0.00562049 2.71611 4.45356 1.56322 3.49953 -87.314 -13.605 -72.5979 4.37197 1.51337 -2.73692 93.2246 -18.4209 99.6847 9.67523 -3.81471e-006 3.33067e-015 -40.3198 0.700796 0.831014 1.08197 -0.588671 3.00154e-008 -0.867302 -9.54441e-009 1.26664e-008 3.13396 0.276414 2.53306e-006 2.19985 -2.12374e-008 -3.59306e-008 4.96894 0.639815 -1.45222e-010 -4.90157 0.0022807 -4.71622 4.67587 -0.164094 7.27595e-012 179.107 0.697547 -11.1601 13.1147 -2.22045e-015 1.19209e-007 -5.82168 -0.989102 24.4311 13.4995 -2.38419e-007 -8.88178e-016 -3.02871 5.65356 29.874 13.2851 -2.38419e-007 -9.53674e-007 -1.82438 -2.12145 51.7646 14.6528 1.28497e-012 3.8147e-006 -1.49671 -2.11067 43.4876 13.1048 -1.19209e-007 -7.62939e-006 2.09767 0.08992 21.5738 11.869 -1.33227e-015 2.84217e-014 -1.12795 5.68666 -25.3566 
3.86923 3.96817 0.0433908 5.37298 -0.0288488 -0.290789 5.06197 -0.168311 7.27594e-012 6.74641 -2.57646 38.9544 14.8952 -2.38419e-007 -1.90735e-006 58.493 -31.2865 -32.7123 14.3786 -1.06581e-014 9.53674e-007 41.3436 2.70512 -17.6075 15.3325 -3.55272e-015 -8.88178e-015 -19.3856 -10.7978 25.3276 11.0839 -1.90735e-006 -5.96047e-008 -68.6609 -0.105428 3.18083 4.35591 1.68137 3.11929 -87.314 -13.605 -72.5979 4.24062 1.57507 -2.35348 93.2246 -18.421 99.6847 9.67523 -3.81471e-006 1.33227e-015 -40.4577 0.630705 0.918209 1.08197 -0.588671 3.02748e-008 -0.867302 -8.5268e-009 4.25543e-008 3.07851 0.27413 2.5329e-006 2.12639 -2.47244e-008 -3.48907e-008 4.80897 0.601847 -3.09225e-010 -25.6478 0.00143619 -8.68044 4.67587 -0.164094 7.27598e-012 179.098 0.706286 -11.0495 13.1147 1.28786e-014 1.19209e-007 -5.91881 -1.02908 26.4544 13.4995 -2.38419e-007 1.77636e-015 -3.16582 5.57593 30.51 13.2851 -2.38419e-007 -9.53674e-007 -1.94945 -2.28122 53.4325 14.6528 1.05294e-012 3.8147e-006 -1.2931 -2.26713 40.9361 13.1048 -1.19209e-007 -7.62939e-006 3.05327 -0.856231 16.4344 11.869 4.44089e-016 1.42109e-014 -0.894006 5.40762 -27.626 
3.82626 3.96498 0.0763414 5.37288 -0.0494943 -0.510299 5.06197 -0.168311 7.27599e-012 5.83389 -2.57706 39.514 14.8952 -2.38419e-007 -1.90735e-006 57.0957 -31.2569 -34.6443 14.3786 1.06581e-014 9.53674e-007 42.3891 3.38727 -16.5047 15.3325 -1.42109e-014 -8.88178e-015 -16.3809 -9.68882 23.9491 11.0839 -1.90735e-006 -5.96047e-008 -69.2265 -0.236013 3.78902 4.22861 1.83539 2.62358 -87.314 -13.605 -72.5979 4.0694 1.65551 -1.85364 93.2247 -18.421 99.6848 9.67523 -3.81471e-006 4.44089e-015 -40.6348 0.534962 1.03134 1.08197 -0.588671 3.06159e-008 -0.867302 -7.75746e-009 8.81986e-008 3.00623 0.271191 2.53269e-006 2.05459 -2.79276e-008 -3.36338e-008 4.60044 0.55222 -4.8845e-010 -43.1077 0.00181692 -12.0154 4.67587 -0.164094 7.27596e-012 179.092 0.718692 -10.889 13.1147 -4.44089e-016 1.19209e-007 -5.99589 -1.06445 28.0983 13.4995 -2.38419e-007 0 -3.31479 5.48803 31.3605 13.2851 -2.38419e-007 -9.53674e-007 -2.08051 -2.42237 55.085 14.6528 9.37916e-013 3.8147e-006 -1.04688 -2.47377 37.6106 13.1048 -1.19209e-007 -7.62939e-006 4.04148 -2.15189 9.74055 11.869 0 7.10543e-015 -0.612035 5.04855 -30.5818 
3.77328 3.96106 0.116789 5.37264 -0.0747468 -0.778797 5.06197 -0.168311 7.27593e-012 4.7898 -2.57515 40.1697 14.8952 -2.38419e-007 -1.90735e-006 55.4493 -31.1698 -36.8592 14.3786 1.06581e-014 9.53674e-007 43.5576 4.17792 -15.2364 15.3325 3.55272e-015 -1.77636e-015 -12.839 -8.36447 22.3646 11.0839 -1.90735e-006 -5.96046e-008 -69.8273 -0.388102 4.4857 4.08226 2.01243 2.05377 -87.314 -13.605 -72.5979 3.87256 1.74798 -1.27904 93.2246 -18.421 99.6847 9.67523 -3.81471e-006 3.33067e-015 -40.8304 0.42692 1.15897 1.08197 -0.588671 3.0985e-008 -0.867303 -7.77361e-009 1.62588e-007 2.92312 0.267775 2.53247e-006 1.98416 -3.0073e-008 -3.23801e-008 4.36072 0.49525 -6.1646e-010 -50.3249 -0.000277264 -13.3956 4.67587 -0.164094 7.27594e-012 179.086 0.734786 -10.6824 13.1147 -3.55271e-015 1.19209e-007 -6.05286 -1.09999 29.3893 13.4995 -2.38419e-007 -8.88178e-016 -3.46627 5.394 32.3673 13.2851 -2.38419e-007 -9.53674e-007 -2.21814 -2.53492 56.6553 14.6528 8.63976e-013 3.8147e-006 -0.785511 -2.70956 33.7904 13.1048 -1.19209e-007 -7.62939e-006 4.80477 -3.66465 2.03447 11.869 0 0 -0.319645 4.62952 -33.975 
3.70918 3.95634 0.165486 5.36982 -0.105076 -1.10178 5.06197 -0.168311 7.2761e-012 3.62237 -2.57372 40.9147 14.8952 -2.38419e-007 -1.90735e-006 53.5574 -31 -39.3241 14.3786 3.55272e-015 9.53674e-007 44.8168 5.06927 -13.8178 15.3325 -3.55272e-015 -1.77636e-015 -8.7647 -6.83004 20.5962 11.0839 -1.90735e-006 -5.96046e-008 -70.4351 -0.555021 5.25674 3.91881 2.21016 1.41729 -87.314 -13.605 -72.5979 3.6527 1.85124 -0.637255 93.2246 -18.421 99.6847 9.67523 -3.81471e-006 -1.77636e-015 -41.0428 0.306565 1.30596 1.08197 -0.588671 3.13401e-008 -0.867303 -9.2313e-009 2.98284e-007 2.83033 0.263953 2.53225e-006 1.91304 -3.0885e-008 -3.1281e-008 4.09295 0.431654 -6.42851e-010 -43.754 0.00206556 -11.4179 4.67587 -0.164094 7.27607e-012 179.082 0.755101 -10.4216 13.1147 8.88178e-015 1.19209e-007 -6.09149 -1.13551 30.4282 13.4995 -2.38419e-007 -3.9968e-015 -3.62882 5.28716 33.5363 13.2851 -2.38419e-007 -9.53674e-007 -2.35701 -2.62812 58.1732 14.6528 8.189e-013 3.8147e-006 -0.522557 -2.97329 29.5167 13.1048 -1.19209e-007 -7.62939e-006 5.18175 -5.28662 -6.59487 11.869 -1.77636e-015 1.06581e-014 -0.0350074 4.16726 -37.7625 
3.63415 3.95085 0.2222 5.37167 -0.140034 -1.47299 5.06197 -0.168311 7.27593e-012 2.37745 -2.56708 41.7317 14.8952 -2.38419e-007 -1.90735e-006 51.4836 -30.7362 -41.931 14.3786 0 9.53674e-007 46.1208 6.02928 -12.3053 15.3325 3.55272e-015 3.55271e-015 -4.26396 -5.12055 18.6955 11.0839 -1.90735e-006 -5.96046e-008 -71.0051 -0.735881 6.07326 3.74423 2.42137 0.737516 -87.314 -13.605 -72.5979 3.41789 1.96155 0.0482254 93.2246 -18.421 99.6847 9.67523 -3.81471e-006 -1.55431e-015 -41.2534 0.18076 1.46384 1.08197 -0.588671 3.16325e-008 -0.867302 -1.56463e-007 1.0027e-005 2.73061 0.259877 2.53207e-006 1.84239 -3.04346e-008 -3.04822e-008 3.80531 0.363276 -5.35935e-010 -27.9049 0.00178343 -6.64245 4.67587 -0.164094 7.27596e-012 179.077 0.779973 -10.1027 13.1147 -1.33227e-015 1.19209e-007 -6.1217 -1.17284 31.269 13.4995 -2.38419e-007 -2.66453e-015 -3.79313 5.17222 34.8357 13.2851 -2.38419e-007 -9.53674e-007 -2.4954 -2.69901 59.6189 14.6528 7.87148e-013 3.8147e-006 -0.274864 -3.24538 24.9534 13.1048 -1.19209e-007 -7.62939e-006 5.05235 -6.82438 -15.8695 11.869 -1.77636e-015 0 0.226611 3.68341 -41.8054 
3.55114 3.9448 0.28463 5.36835 -0.178285 -1.8806 5.06197 -0.168311 7.27585e-012 1.13644 -2.56027 42.5687 14.8952 -2.38419e-007 -1.90735e-006 49.3445 -30.389 -44.5074 14.3786 5.32907e-015 9.53674e-007 47.3673 6.99738 -10.7961 15.3325 -1.06582e-014 0 0.394106 -3.34306 16.7774 11.0839 -1.90735e-006 -5.96046e-008 -71.4794 -0.913356 6.87531 3.56996 2.63221 0.0589728 -87.314 -13.605 -72.5979 3.18349 2.07167 0.732461 93.2246 -18.421 99.6847 9.67523 -3.81471e-006 -1.77636e-015 -41.4487 0.0537863 1.617 1.08197 -0.588671 3.17856e-008 -0.867302 -7.90155e-009 1.90821e-007 2.63283 0.255885 2.53195e-006 1.77313 -2.92035e-008 -3.01814e-008 3.52323 0.296231 -2.99002e-010 -9.38674 0.00305346 -1.06298 4.67587 -0.164094 7.27601e-012 179.073 0.808661 -9.73458 13.1147 1.33227e-015 1.19209e-007 -6.13887 -1.21289 31.9556 13.4995 -2.38419e-007 -3.55271e-015 -3.95308 5.05294 36.2038 13.2851 -2.38419e-007 -9.53674e-007 -2.62735 -2.75094 60.9314 14.6528 7.59837e-013 3.8147e-006 -0.0585146 -3.50751 20.3953 13.1048 -1.19209e-007 -7.62939e-006 4.42015 -8.02818 -25.1914 11.869 0 0 0.446017 3.21017 -45.8379 
